<svg xmlns="http://www.w3.org/2000/svg" width="310" height="84" fill="none"><path fill="#fff" d="M1.5 0h306v84H1.5z"/><path fill="#fff" stroke="#000" stroke-width="2" d="M1 1h308v82H1z"/><path fill="#000" d="M140.5 17h2.154v2.154H140.5zM140.5 19.154h2.154v2.154H140.5zM140.5 21.308h2.154v2.154H140.5zM140.5 23.462h2.154v2.154H140.5z"/><path fill="#000" d="M140.5 25.615h2.154v2.154H140.5zM140.5 27.769h2.154v2.154H140.5zM140.5 29.923h2.154v2.154H140.5zM140.5 32.077h2.154v2.154H140.5zM140.5 34.231h2.154v2.154H140.5z"/><path fill="#000" d="M140.5 36.385h2.154v2.154H140.5z"/><path fill="#000" d="M140.5 38.538h2.154v2.154H140.5zM140.5 40.692h2.154v2.154H140.5z"/><path fill="#000" d="M140.5 42.846h2.154V45H140.5zM164.193 17v2.154h-2.154V17zM162.039 17v2.154h-2.154V17zM159.884 17v2.154h-2.154V17zM157.73 17v2.154h-2.154V17z"/><path fill="#000" d="M155.577 17v2.154h-2.154V17zM153.423 17v2.154h-2.154V17z"/><path fill="#000" d="M151.27 17v2.154h-2.154V17zM149.116 17v2.154h-2.154V17zM146.961 17v2.154h-2.154V17zM144.807 17v2.154h-2.154V17zM166.346 19.154v2.154h-2.154v-2.154zM146.96 21.308v2.154h-2.153v-2.154zM146.961 19.154v2.154h-2.154v-2.154zM146.96 23.462v2.154h-2.153v-2.154zM162.039 21.308v2.154h-2.154v-2.154zM162.04 19.154v2.154h-2.155v-2.154zM162.039 23.462v2.154h-2.154v-2.154zM157.73 21.308v2.154h-2.154v-2.154zM157.73 19.154v2.154h-2.154v-2.154zM157.73 23.462v2.154h-2.154v-2.154z"/><path fill="#000" d="M162.04 25.615v2.154h-2.155v-2.154zM159.884 25.615v2.154h-2.154v-2.154zM157.73 25.615v2.154h-2.154v-2.154z"/><path fill="#000" d="M155.577 25.615v2.154h-2.154v-2.154zM153.423 25.615v2.154h-2.154v-2.154z"/><path fill="#000" d="M151.27 25.615v2.154h-2.154v-2.154zM149.116 25.615v2.154h-2.154v-2.154zM146.961 25.615v2.154h-2.154v-2.154zM164.193 32.077v2.154h-2.154v-2.154zM162.039 32.077v2.154h-2.154v-2.154zM159.884 32.077v2.154h-2.154v-2.154zM157.73 32.077v2.154h-2.154v-2.154z"/><path fill="#000" d="M155.577 32.077v2.154h-2.154v-2.154zM153.423 32.077v2.154h-2.154v-2.154z"/><path fill="#000" d="M151.27 32.077v2.154h-2.154v-2.154zM149.116 32.077v2.154h-2.154v-2.154zM146.96 32.077v2.154h-2.153v-2.154zM164.193 34.23v2.155h-2.154V34.23z"/><path fill="#000" d="M146.96 34.23v2.155h-2.153V34.23zM164.193 36.385v2.154h-2.154v-2.154zM146.96 36.385v2.154h-2.153v-2.154z"/><path fill="#000" d="M164.193 38.538v2.154h-2.154v-2.154zM146.961 38.538v2.154h-2.154v-2.154zM146.961 40.692v2.154h-2.154v-2.154zM164.193 40.692v2.154h-2.154v-2.154z"/><path fill="#000" d="M166.346 42.846V45h-2.154v-2.154z"/><path fill="#000" d="M164.193 42.846V45h-2.154v-2.154zM162.039 42.846V45h-2.154v-2.154zM159.884 42.846V45h-2.154v-2.154zM157.73 42.846V45h-2.154v-2.154z"/><path fill="#000" d="M155.577 42.846V45h-2.154v-2.154zM153.423 42.846V45h-2.154v-2.154z"/><path fill="#000" d="M151.27 42.846V45h-2.154v-2.154zM149.116 42.846V45h-2.154v-2.154zM146.96 42.846V45h-2.153v-2.154zM144.807 42.846V45h-2.154v-2.154zM168.5 45h-2.154v-2.154h2.154zM168.5 42.846h-2.154v-2.154h2.154z"/><path fill="#000" d="M168.5 40.693h-2.154v-2.154h2.154zM168.5 38.539h-2.154v-2.154h2.154zM168.5 36.385h-2.154V34.23h2.154zM168.5 34.23h-2.154v-2.154h2.154z"/><path fill="#000" d="M168.5 32.077h-2.154v-2.154h2.154zM168.5 29.923h-2.154V27.77h2.154zM168.5 27.77h-2.154v-2.154h2.154zM168.5 25.615h-2.154v-2.154h2.154zM168.5 23.461h-2.154v-2.154h2.154zM25 65.25V63.5h-1.75v-1.75H21.5V56.5h1.75v-1.75H25V53h7v1.75h1.75v1.75h-3.5v-1.75h-3.5v1.75H25v5.25h1.75v1.75h3.5v-1.75h3.5v1.75H32v1.75h-7Zm12.25 0V63.5H35.5v-5.25h1.75V56.5H46v1.75h1.75v5.25H46v1.75h-8.75ZM39 63.5h5.25v-5.25H39v5.25Zm10.5 1.75V63.5h1.75v-1.75H53V60h-1.75v-1.75H49.5V56.5H53v1.75h1.75V60h1.75v-1.75h1.75V56.5h3.5v1.75H60V60h-1.75v1.75H60v1.75h1.75v1.75h-3.5V63.5H56.5v-1.75h-1.75v1.75H53v1.75h-3.5Zm26.25-7v5.25H74v1.75h-7V67h-3.5V56.5H67v1.75h1.75V60H67v3.5h5.25v-5.25h-3.5V56.5H74v1.75h1.75Zm3.5 7V63.5H77.5v-1.75h1.75V60h7v-1.75h-7V56.5H88v1.75h1.75v7h-10.5ZM81 63.5h5.25v-1.75H81v1.75Zm10.5 1.75V56.5H95V60h5.25v-3.5h3.5v8.75h-3.5v-3.5H95v3.5h-3.5Zm17.5-3.5h1.75v1.75H109v1.75h-3.5V56.5h3.5v5.25Zm8.75-5.25v8.75h-3.5V60h-1.75v-1.75h1.75V56.5h3.5Zm-7 3.5h1.75v1.75h-1.75V60Zm14 5.25v-7h-3.5V56.5h10.5v1.75h-3.5v7h-3.5Zm8.75 0V56.5h3.5V60h7v1.75h1.75v1.75H144v1.75h-10.5Zm3.5-1.75h5.25v-1.75H137v1.75Zm24.5 1.75V56.5h3.5V60h5.25v-3.5h3.5v8.75h-3.5v-3.5H165v3.5h-3.5Zm15.75 0V63.5h-1.75v-1.75h1.75V60h7v-1.75h-7V56.5H186v1.75h1.75v7h-10.5ZM179 63.5h5.25v-1.75H179v1.75Zm24.5 1.75V56.5h12.25v8.75h-3.5v-7H207v7h-3.5Zm15.75 0V63.5h-1.75v-1.75h1.75V60h7v-1.75h-7V56.5H228v1.75h1.75v7h-10.5ZM221 63.5h5.25v-1.75H221v1.75Zm15.75-5.25V60H235v5.25h-3.5V56.5h3.5v1.75h1.75Zm7-1.75v8.75h-3.5V60h-1.75v-1.75h1.75V56.5h3.5Zm-7 3.5h1.75v3.5h-1.75V60Zm8.75 5.25v-3.5h1.75V60h-1.75v-1.75h1.75V56.5h10.5v8.75h-3.5v-3.5H249v3.5h-3.5ZM249 60h5.25v-1.75H249V60Zm15.75 5.25v-7h-3.5V56.5h10.5v1.75h-3.5v7h-3.5Zm8.75 0V56.5h3.5V60h7v1.75h1.75v1.75H284v1.75h-10.5Zm3.5-1.75h5.25v-1.75H277v1.75Z"/></svg>