<svg xmlns="http://www.w3.org/2000/svg" width="700" height="368" fill="none"><path fill="#fff" d="M0 0h700v368H0z"/><path fill="#fff" stroke="#000" stroke-width="2" d="M1 1h698v366H1z"/><path fill="#000" d="M322.25 283.25v-10.5h-3.5V271h10.5v1.75h-3.5v10.5h-3.5Zm8.75 0V271h12.25v1.75h-8.75v3.5h7V278h-7v3.5h8.75v1.75H331Zm14 0V271h3.5v1.75h1.75v1.75H352v-1.75h1.75V271h3.5v12.25h-3.5v-7H352v3.5h-1.75v-3.5h-1.75v7H345Zm14 0V271h3.5v5.25h5.25V271h3.5v12.25h-3.5V278h-5.25v5.25H359Zm15.75 0v-1.75H373v-8.75h1.75V271h8.75v1.75h1.75v8.75h-1.75v1.75h-8.75Zm1.75-1.75h5.25v-8.75h-5.25v8.75ZM317 311.25v-8.75h1.75v-1.75h1.75V299h5.25v1.75h1.75v1.75h1.75v8.75h-3.5v-3.5h-5.25v3.5H317Zm3.5-5.25h5.25v-3.5H324v-1.75h-1.75v1.75h-1.75v3.5Zm10.5 5.25V299h10.5v1.75h1.75v3.5h-1.75V306h1.75v3.5h-1.75v1.75H331Zm3.5-7h5.25v-3.5h-5.25v3.5Zm0 5.25h5.25V306h-5.25v3.5Zm15.75 1.75v-10.5h-3.5V299h10.5v1.75h-3.5v10.5h-3.5Zm10.5 0v-1.75H359v-8.75h1.75V299h8.75v1.75h1.75v8.75h-1.75v1.75h-8.75Zm1.75-1.75h5.25v-8.75h-5.25v8.75Z"/><path fill="#000" d="M320.5 339.25v-1.75h-1.75v-1.75H317v-5.25h1.75v-1.75h1.75V327h7v1.75h1.75v1.75h-3.5v-1.75h-3.5v1.75h-1.75v5.25h1.75v1.75h3.5v-1.75h3.5v1.75h-1.75v1.75h-7Zm10.5 0V327h10.5v1.75h1.75v3.5h-1.75V334h1.75v3.5h-1.75v1.75H331Zm3.5-7h5.25v-3.5h-5.25v3.5Zm0 5.25h5.25V334h-5.25v3.5Zm10.5 1.75V327h12.25v1.75h-8.75v3.5h7V334h-7v3.5h8.75v1.75H345Zm19.25 0v-10.5h-3.5V327h10.5v1.75h-3.5v10.5h-3.5Zm8.75 0v-3.5h1.75V334h1.75v-7h8.75v12.25h-3.5v-10.5h-3.5v8.75h-1.75v1.75H373Zm15.75 0v-1.75H387v-8.75h1.75V327h8.75v1.75h1.75v8.75h-1.75v1.75h-8.75Zm1.75-1.75h5.25v-8.75h-5.25v8.75Z" opacity=".6"/><path fill="#000" d="M180.375 243.125v-2.875H177.5v-2.875h5.75v2.875h8.625v-5.75h-8.625v-2.875h8.625v-5.75h-8.625v2.875h-5.75v-2.875h2.875V223h14.375v2.875h2.875v5.75h-2.875v2.875h2.875v5.75h-2.875v2.875h-14.375Zm20.125 0V228.75h2.875v-2.875h2.875V223h8.625v2.875h2.875v2.875h2.875v14.375h-5.75v-5.75h-8.625v5.75h-5.75Zm5.75-8.625h8.625v-5.75H212v-2.875h-2.875v2.875h-2.875v5.75Zm25.875-5.75H235v2.875h2.875v2.875h2.875v5.75h2.875v2.875h-5.75v-2.875H235v-5.75h-5.75v8.625h-5.75V223h5.75v8.625h2.875v-2.875Zm11.5-5.75v2.875h-2.875v2.875H235v-2.875h2.875V223h5.75Zm2.875 20.125V223h17.25v2.875h2.875v8.625h-2.875v2.875h-11.5v5.75h-5.75Zm5.75-8.625h8.625v-8.625h-8.625v8.625Zm17.25 8.625V223h5.75v5.75H281v14.375h-11.5Zm14.375 0V223h5.75v20.125h-5.75Zm-8.625-2.875h2.875v-8.625h-2.875v8.625Zm17.25 2.875V223h17.25v2.875h2.875v5.75h-2.875v2.875h2.875v5.75h-2.875v2.875H292.5Zm5.75-11.5h8.625v-5.75h-8.625v5.75Zm0 8.625h8.625v-5.75h-8.625v5.75Zm17.25 2.875V228.75h2.875v-2.875h2.875V223h8.625v2.875h2.875v2.875h2.875v14.375h-5.75v-5.75h-8.625v5.75h-5.75Zm5.75-8.625h8.625v-5.75H327v-2.875h-2.875v2.875h-2.875v5.75Zm17.25 8.625V223h2.875v8.625h2.875v-5.75h2.875V223h8.625v2.875h2.875v14.375h-2.875v2.875h-8.625v-2.875h-2.875v-5.75h-2.875v8.625H338.5Zm11.5-2.875h2.875v-14.375H350v14.375Zm28.75 5.75v-2.875H361.5V223h5.75v17.25h2.875V223H373v17.25h2.875V223h5.75v17.25h2.875V246h-5.75Zm5.75-2.875V223h5.75v11.5h2.875v-2.875H396v-2.875h2.875V223h5.75v20.125h-5.75V234.5H396v2.875h-2.875v2.875h-2.875v2.875h-5.75Zm25.875-17.25V223h14.375v2.875h-14.375Zm-2.875 17.25V228.75h5.75v8.625h2.875V234.5H419v-2.875h2.875v-2.875h5.75v14.375h-5.75v-5.75H419v2.875h-2.875v2.875H407.5Zm54.625 0v-17.25h-5.75V223h17.25v2.875h-5.75v17.25h-5.75Zm14.375 0V223h20.125v2.875H482.25v5.75h11.5v2.875h-11.5v5.75h14.375v2.875H476.5Zm25.875 0V223h17.25v5.75h-2.875v-2.875h-8.625v17.25h-5.75ZM155 194.875v-8.125h-8.125v-8.125h-8.125V170.5h-8.125v-8.125h8.125v-8.125h8.125v-8.125H155V138h16.25v8.125h-8.125v8.125H155v8.125h-8.125v8.125H155v8.125h8.125v8.125h8.125v8.125H155ZM244.375 138v8.125h-8.125V138h8.125Zm-16.25 8.125h8.125v8.125h-8.125v-8.125ZM220 154.25h8.125v8.125H220v-8.125Zm-8.125 8.125H220v8.125h-8.125v-8.125Zm-8.125 8.125h8.125v8.125h-8.125V170.5Zm-8.125 8.125h8.125v8.125h-8.125v-8.125Zm-8.125 8.125h8.125v8.125H187.5v-8.125Zm65 8.125V138h16.25v24.375h24.375V138h16.25v56.875h-16.25V170.5H268.75v24.375H252.5Zm89.375 0v-48.75h-16.25V138h48.75v8.125h-16.25v48.75h-16.25Zm40.625 0V138h16.25v8.125h8.125v8.125H415v-8.125h8.125V138h16.25v56.875h-16.25v-32.5H415v16.25h-8.125v-16.25h-8.125v32.5H382.5Zm73.125 0V138h16.25v48.75h32.5v8.125h-48.75Zm65 0v-8.125h8.125v-8.125h8.125V170.5H545v-8.125h-8.125v-8.125h-8.125v-8.125h-8.125V138h16.25v8.125H545v8.125h8.125v8.125h8.125v8.125h-8.125v8.125H545v8.125h-8.125v8.125h-16.25Z"/><g clip-path="url(#a)"><path fill="#000" d="M297 339.25V327h1.75v1.75h3.5v1.75h3.5v1.75h3.5V334h-3.5v1.75h-3.5v1.75h-3.5v1.75H297Z" opacity=".6"/></g><defs><clipPath id="a"><path fill="#fff" d="M297 327h16v13h-16z"/></clipPath></defs></svg>